<?xml version="1.0" encoding="UTF-8" standalone="no"?>
<!-- Created with Inkscape (http://www.inkscape.org/) -->

<svg
   width="20mm"
   height="20mm"
   viewBox="0 0 20 20"
   version="1.1"
   id="svg5"
   xml:space="preserve"
   inkscape:version="1.2.2 (b0a8486541, 2022-12-01)"
   sodipodi:docname="cadoodle.svg"
   xmlns:inkscape="http://www.inkscape.org/namespaces/inkscape"
   xmlns:sodipodi="http://sodipodi.sourceforge.net/DTD/sodipodi-0.dtd"
   xmlns="http://www.w3.org/2000/svg"
   xmlns:svg="http://www.w3.org/2000/svg"><sodipodi:namedview
     id="namedview7"
     pagecolor="#ffffff"
     bordercolor="#000000"
     borderopacity="0.25"
     inkscape:showpageshadow="2"
     inkscape:pageopacity="0.0"
     inkscape:pagecheckerboard="0"
     inkscape:deskcolor="#d1d1d1"
     inkscape:document-units="mm"
     showgrid="false"
     inkscape:zoom="3.7063186"
     inkscape:cx="-27.115855"
     inkscape:cy="16.863094"
     inkscape:window-width="1737"
     inkscape:window-height="1133"
     inkscape:window-x="0"
     inkscape:window-y="0"
     inkscape:window-maximized="1"
     inkscape:current-layer="layer1" /><defs
     id="defs2" /><g
     inkscape:label="Layer 1"
     inkscape:groupmode="layer"
     id="layer1"
     transform="translate(-19.578639,-99.960642)"><path
       id="path27"
       style="fill:#263d8c;fill-opacity:1;stroke-width:0.319625;stroke-linecap:square;stroke-miterlimit:5.5;paint-order:stroke fill markers"
       d="m 19.738688,182.13833 v 9.58876 h 9.588766 a 9.5887664,9.5887664 0 0 0 -9.588766,-9.58876 z" /><path
       id="path28"
       style="fill:#f2c83d;fill-opacity:1;stroke-width:0.319625;stroke-linecap:square;stroke-miterlimit:5.5;paint-order:stroke fill markers"
       d="m 10.149986,191.72709 a 9.5887664,9.5887664 0 0 0 9.58883,9.58852 9.5887664,9.5887664 0 0 0 9.588508,-9.58852 h -9.588508 z" /><path
       id="path29"
       style="fill:#bb1f09;fill-opacity:1;stroke-width:0.319625;stroke-linecap:square;stroke-miterlimit:5.5;paint-order:stroke fill markers"
       d="m 10.149986,191.72716 h 4.794255 v -8.30413 a 9.5887664,9.5887664 0 0 0 -4.794255,8.30413 z" /><path
       id="path36"
       style="fill:#bb1f09;fill-opacity:1;stroke-width:0.319625;stroke-linecap:square;stroke-miterlimit:5.5;paint-order:stroke fill markers"
       d="m 10.149922,130.49784 h 9.588766 v -9.58877 a 9.5887664,9.5887664 0 0 0 -9.588766,9.58877 z" /><path
       id="path37"
       style="fill:#263d8c;fill-opacity:1;stroke-width:0.319625;stroke-linecap:square;stroke-miterlimit:5.5;paint-order:stroke fill markers"
       d="m 19.738688,120.90907 v 9.58877 h 9.588766 a 9.5887664,9.5887664 0 0 0 -9.588766,-9.58877 z" /><path
       id="path38"
       style="fill:#f2c83d;fill-opacity:1;stroke-width:0.319625;stroke-linecap:square;stroke-miterlimit:5.5;paint-order:stroke fill markers"
       d="m 19.738688,140.0866 v -9.58876 h -9.588766 a 9.5887664,9.5887664 0 0 0 9.588766,9.58876 z" /><path
       id="path39"
       style="fill:#e7a436;fill-opacity:1;stroke-width:0.319625;stroke-linecap:square;stroke-miterlimit:5.5;paint-order:stroke fill markers"
       d="m 29.327454,130.49784 h -9.588766 v 9.58876 a 9.5887664,9.5887664 0 0 0 9.588766,-9.58876 z" /><path
       id="path40"
       style="fill:#bb1f09;fill-opacity:1;stroke-width:0.319625;stroke-linecap:square;stroke-miterlimit:5.5;paint-order:stroke fill markers"
       d="m 10.149922,110.31361 h 9.588766 v -9.58877 a 9.5887664,9.5887664 0 0 0 -9.588766,9.58877 z" /><path
       id="path41"
       style="fill:#263d8c;fill-opacity:1;stroke-width:0.319625;stroke-linecap:square;stroke-miterlimit:5.5;paint-order:stroke fill markers"
       d="m 19.738688,100.72484 v 9.58877 h 9.588766 a 9.5887664,9.5887664 0 0 0 -9.588766,-9.58877 z" /><path
       id="path42"
       style="fill:#f2c83d;fill-opacity:1;stroke-width:0.319625;stroke-linecap:square;stroke-miterlimit:5.5;paint-order:stroke fill markers"
       d="m 19.738688,119.90238 v -9.58877 h -9.588766 a 9.5887664,9.5887664 0 0 0 9.588766,9.58877 z" /><path
       id="path43"
       style="fill:#e7a436;fill-opacity:1;stroke-width:0.319625;stroke-linecap:square;stroke-miterlimit:5.5;paint-order:stroke fill markers"
       d="m 29.327454,110.31361 h -9.588766 v 9.58877 a 9.5887664,9.5887664 0 0 0 9.588766,-9.58877 z" /><path
       id="rect26"
       style="fill:#bb1f09;stroke-width:0.319625;stroke-linecap:square;stroke-miterlimit:5.5;paint-order:stroke fill markers"
       d="m 24.533014,69.945036 h 4.79438 V 60.35627 h -4.79438 z" /><path
       id="rect45"
       style="fill:#263d8c;stroke-width:0.319625;stroke-linecap:square;stroke-miterlimit:5.5;paint-order:stroke fill markers"
       d="m 19.73863,79.533804 h 9.588764 V 69.945038 H 19.73863 Z" /><path
       id="rect46"
       style="fill:#f2c83d;stroke-width:0.319625;stroke-linecap:square;stroke-miterlimit:5.5;paint-order:stroke fill markers"
       d="m 10.149865,79.533804 h 9.588766 v -9.588766 h -9.588766 z" /><path
       id="rect27"
       style="fill:#e7a436;stroke-width:0.319625;stroke-linecap:square;stroke-miterlimit:5.5;paint-order:stroke fill markers"
       d="m 19.73863,49.422518 h 4.794383 V 44.628135 H 19.73863 Z" /><path
       id="rect47"
       style="fill:#bb1f09;stroke-width:0.319625;stroke-linecap:square;stroke-miterlimit:5.5;paint-order:stroke fill markers"
       d="m 10.149865,49.422518 h 4.794383 v -9.588766 h -4.794383 z" /><path
       id="rect50"
       style="fill:#263d8c;stroke-width:0.319625;stroke-linecap:square;stroke-miterlimit:5.5;paint-order:stroke fill markers"
       d="m 19.73863,59.011286 h 9.588764 V 49.42252 H 19.73863 Z" /><path
       id="rect51"
       style="fill:#f2c83d;stroke-width:0.319625;stroke-linecap:square;stroke-miterlimit:5.5;paint-order:stroke fill markers"
       d="m 10.149865,59.011286 h 9.588766 V 49.42252 h -9.588766 z" /><path
       id="rect52"
       style="fill:#f2c83d;stroke-width:0.319625;stroke-linecap:square;stroke-miterlimit:5.5;paint-order:stroke fill markers"
       d="m 24.533014,49.422518 h 4.79438 v -9.588766 h -4.79438 z" /><path
       id="rect33"
       style="fill:#e7a436;fill-opacity:1;stroke:none;stroke-width:0.319625;stroke-linecap:square;stroke-miterlimit:5.5;paint-order:stroke fill markers"
       d="m 10.149986,160.27102 h 9.58883 v -4.79464 h -4.794575 a 4.7943832,4.7943832 0 0 1 4.794575,-4.79426 h -9.58883 z" /><path
       id="rect34"
       style="fill:#f2c83d;fill-opacity:1;stroke-width:0.319625;stroke-linecap:square;stroke-miterlimit:5.5;paint-order:stroke fill markers"
       d="m 19.738816,160.27102 h 9.588508 v -9.5889 h -9.588508 a 4.7943832,4.7943832 0 0 1 4.794255,4.79426 h -4.794255 z" /><path
       id="path34"
       style="fill:#bb1f09;fill-opacity:1;stroke-width:0.319625;stroke-linecap:square;stroke-miterlimit:5.5;paint-order:stroke fill markers"
       d="m 10.149922,150.68212 h 9.588766 v -9.58876 a 9.5887664,9.5887664 0 0 0 -9.588766,9.58876 z" /><path
       id="path35"
       style="fill:#263d8c;fill-opacity:1;stroke-width:0.319625;stroke-linecap:square;stroke-miterlimit:5.5;paint-order:stroke fill markers"
       d="m 19.738688,141.09336 v 9.58876 h 9.588766 a 9.5887664,9.5887664 0 0 0 -9.588766,-9.58876 z" /><path
       id="rect43"
       style="fill:#e7a436;fill-opacity:1;stroke-width:0.319625;stroke-linecap:square;stroke-miterlimit:5.5;paint-order:stroke fill markers"
       d="m 10.149986,99.718278 h 9.58883 V 94.9237 h -4.794575 a 4.7943832,4.7943832 0 0 1 4.794575,-4.794255 h -9.58883 z" /><path
       id="rect44"
       style="fill:#f2c83d;fill-opacity:1;stroke-width:0.319625;stroke-linecap:square;stroke-miterlimit:5.5;paint-order:stroke fill markers"
       d="m 19.738816,99.718278 h 9.588508 v -9.588833 h -9.588508 a 4.7943832,4.7943832 0 0 1 4.794255,4.794255 h -4.794255 z" /><path
       id="path44"
       style="fill:#bb1f09;fill-opacity:1;stroke-width:0.319625;stroke-linecap:square;stroke-miterlimit:5.5;paint-order:stroke fill markers"
       d="m 10.149922,90.129381 h 9.588766 v -9.588766 a 9.5887664,9.5887664 0 0 0 -9.588766,9.588766 z" /><path
       id="path45"
       style="fill:#263d8c;fill-opacity:1;stroke-width:0.319625;stroke-linecap:square;stroke-miterlimit:5.5;paint-order:stroke fill markers"
       d="m 19.738688,80.540615 v 9.588766 h 9.588766 a 9.5887664,9.5887664 0 0 0 -9.588766,-9.588766 z" /><path
       id="path30"
       style="fill:#f2c83d;fill-opacity:1;stroke-width:0.319625;stroke-linecap:square;stroke-miterlimit:5.5;paint-order:stroke fill markers"
       d="m 10.149986,171.20464 a 9.5887664,9.5887664 0 0 0 9.58883,9.58883 v -9.58883 h -3.2e-4 v 4.79426 a 4.7943832,4.7943832 0 0 1 -4.794255,-4.79426 z" /><path
       id="path31"
       style="fill:#bb1f09;fill-opacity:1;stroke-width:0.319625;stroke-linecap:square;stroke-miterlimit:5.5;paint-order:stroke fill markers"
       d="m 10.149986,171.20464 h 4.794255 a 4.7943832,4.7943832 0 0 1 4.794255,-4.79425 v 4.79425 h 3.2e-4 v -9.58883 a 9.5887664,9.5887664 0 0 0 -9.58883,9.58883 z" /><path
       id="rect31"
       style="fill:#263d8c;fill-opacity:1;stroke:none;stroke-width:0.319625;stroke-linecap:square;stroke-miterlimit:5.5;paint-order:stroke fill markers"
       d="m 19.738816,180.79347 h 9.588508 v -4.79457 a 4.7943832,4.7943832 0 0 1 -4.794253,-4.79426 h -4.794255 z" /><path
       id="rect32"
       style="fill:#e7a436;fill-opacity:1;stroke:none;stroke-width:0.319625;stroke-linecap:square;stroke-miterlimit:5.5;paint-order:stroke fill markers"
       d="m 19.738816,171.20464 h 4.794255 a 4.7943832,4.7943832 0 0 1 4.794253,-4.79425 v -4.79458 h -9.588508 z" /></g></svg>
