<?xml version="1.0" encoding="UTF-8" standalone="no"?>
<!-- Created with Inkscape (http://www.inkscape.org/) -->

<svg
   width="20mm"
   height="20mm"
   viewBox="0 0 20 20"
   version="1.1"
   id="svg5"
   xml:space="preserve"
   inkscape:version="1.2.2 (b0a8486541, 2022-12-01)"
   sodipodi:docname="cadoodle.svg"
   xmlns:inkscape="http://www.inkscape.org/namespaces/inkscape"
   xmlns:sodipodi="http://sodipodi.sourceforge.net/DTD/sodipodi-0.dtd"
   xmlns="http://www.w3.org/2000/svg"
   xmlns:svg="http://www.w3.org/2000/svg"><sodipodi:namedview
     id="namedview7"
     pagecolor="#ffffff"
     bordercolor="#000000"
     borderopacity="0.25"
     inkscape:showpageshadow="2"
     inkscape:pageopacity="0.0"
     inkscape:pagecheckerboard="0"
     inkscape:deskcolor="#d1d1d1"
     inkscape:document-units="mm"
     showgrid="false"
     inkscape:zoom="9.282915"
     inkscape:cx="-8.9411569"
     inkscape:cy="61.456988"
     inkscape:window-width="1737"
     inkscape:window-height="1133"
     inkscape:window-x="0"
     inkscape:window-y="0"
     inkscape:window-maximized="1"
     inkscape:current-layer="layer1" /><defs
     id="defs2" /><g
     inkscape:label="Layer 1"
     inkscape:groupmode="layer"
     id="layer1"
     transform="translate(-19.578639,-99.960642)"><g
       id="g1373"
       transform="translate(0.73960936,0.2776736)"><path
         id="path27"
         style="fill:#263d8c;fill-opacity:1;stroke-width:0.319625;stroke-linecap:square;stroke-miterlimit:5.5;paint-order:stroke fill markers"
         d="m 18.90589,181.91615 a 9.5887664,9.5887664 0 0 1 9.588766,9.58876 H 18.90589 Z" /><path
         id="path28"
         style="fill:#f2c83d;fill-opacity:1;stroke-width:0.319625;stroke-linecap:square;stroke-miterlimit:5.5;paint-order:stroke fill markers"
         d="m 9.3171874,191.50491 a 9.5887664,9.5887664 0 0 0 9.5888306,9.58852 9.5887664,9.5887664 0 0 0 9.58851,-9.58852 h -9.58851 z" /><path
         id="path29"
         style="fill:#bb1f09;fill-opacity:1;stroke-width:0.319625;stroke-linecap:square;stroke-miterlimit:5.5;paint-order:stroke fill markers"
         d="m 9.3171874,191.50498 h 4.7942556 v -8.30413 a 9.5887664,9.5887664 0 0 0 -4.7942556,8.30413 z" /><path
         id="path36"
         style="fill:#bb1f09;fill-opacity:1;stroke-width:0.319625;stroke-linecap:square;stroke-miterlimit:5.5;paint-order:stroke fill markers"
         d="m 9.3171235,130.27566 a 9.5887664,9.5887664 0 0 1 9.5887665,-9.58877 v 9.58877 z" /><path
         id="path37"
         style="fill:#263d8c;fill-opacity:1;stroke-width:0.319625;stroke-linecap:square;stroke-miterlimit:5.5;paint-order:stroke fill markers"
         d="m 18.90589,120.68689 a 9.5887664,9.5887664 0 0 1 9.588766,9.58877 H 18.90589 Z" /><path
         id="path38"
         style="fill:#f2c83d;fill-opacity:1;stroke-width:0.319625;stroke-linecap:square;stroke-miterlimit:5.5;paint-order:stroke fill markers"
         d="M 18.90589,139.86442 A 9.5887664,9.5887664 0 0 1 9.3171235,130.27566 H 18.90589 Z" /><path
         id="path39"
         style="fill:#e7a436;fill-opacity:1;stroke-width:0.319625;stroke-linecap:square;stroke-miterlimit:5.5;paint-order:stroke fill markers"
         d="m 28.494656,130.27566 a 9.5887664,9.5887664 0 0 1 -9.588766,9.58876 v -9.58876 z" /><path
         id="path40"
         style="fill:#bb1f09;fill-opacity:1;stroke-width:0.319625;stroke-linecap:square;stroke-miterlimit:5.5;paint-order:stroke fill markers"
         d="m 9.3171235,110.09143 a 9.5887664,9.5887664 0 0 1 9.5887665,-9.58877 v 9.58877 z" /><path
         id="path41"
         style="fill:#263d8c;fill-opacity:1;stroke-width:0.319625;stroke-linecap:square;stroke-miterlimit:5.5;paint-order:stroke fill markers"
         d="m 18.90589,100.50266 a 9.5887664,9.5887664 0 0 1 9.588766,9.58877 H 18.90589 Z" /><path
         id="path42"
         style="fill:#f2c83d;fill-opacity:1;stroke-width:0.319625;stroke-linecap:square;stroke-miterlimit:5.5;paint-order:stroke fill markers"
         d="M 18.90589,119.6802 A 9.5887664,9.5887664 0 0 1 9.3171235,110.09143 H 18.90589 Z" /><path
         id="path43"
         style="fill:#e7a436;fill-opacity:1;stroke-width:0.319625;stroke-linecap:square;stroke-miterlimit:5.5;paint-order:stroke fill markers"
         d="m 28.494656,110.09143 a 9.5887664,9.5887664 0 0 1 -9.588766,9.58877 v -9.58877 z" /><rect
         style="fill:#bb1f09;fill-opacity:1;stroke:none;stroke-width:0.319625;stroke-linecap:square;stroke-miterlimit:5.5;paint-order:stroke fill markers"
         id="rect26"
         width="9.5887661"
         height="4.794383"
         x="-69.722862"
         y="23.700216"
         transform="rotate(-90)" /><rect
         style="fill:#263d8c;fill-opacity:1;stroke:none;stroke-width:0.319625;stroke-linecap:square;stroke-miterlimit:5.5;paint-order:stroke fill markers"
         id="rect45"
         width="9.5887661"
         height="9.5887661"
         x="-79.31163"
         y="18.905832"
         transform="rotate(-90)" /><rect
         style="fill:#f2c83d;fill-opacity:1;stroke:none;stroke-width:0.319625;stroke-linecap:square;stroke-miterlimit:5.5;paint-order:stroke fill markers"
         id="rect46"
         width="9.5887661"
         height="9.5887661"
         x="-79.31163"
         y="9.3170662"
         transform="rotate(-90)" /><rect
         style="fill:#e7a436;fill-opacity:1;stroke:none;stroke-width:0.319625;stroke-linecap:square;stroke-miterlimit:5.5;paint-order:stroke fill markers"
         id="rect27"
         width="4.794383"
         height="4.794383"
         x="-49.200344"
         y="18.905832"
         transform="rotate(-90)" /><rect
         style="fill:#bb1f09;fill-opacity:1;stroke:none;stroke-width:0.319625;stroke-linecap:square;stroke-miterlimit:5.5;paint-order:stroke fill markers"
         id="rect47"
         width="9.5887661"
         height="4.794383"
         x="-49.200344"
         y="9.3170662"
         transform="rotate(-90)" /><rect
         style="fill:#263d8c;fill-opacity:1;stroke:none;stroke-width:0.319625;stroke-linecap:square;stroke-miterlimit:5.5;paint-order:stroke fill markers"
         id="rect50"
         width="9.5887661"
         height="9.5887661"
         x="-58.789112"
         y="18.905832"
         transform="rotate(-90)" /><rect
         style="fill:#f2c83d;fill-opacity:1;stroke:none;stroke-width:0.319625;stroke-linecap:square;stroke-miterlimit:5.5;paint-order:stroke fill markers"
         id="rect51"
         width="9.5887661"
         height="9.5887661"
         x="-58.789112"
         y="9.3170662"
         transform="rotate(-90)" /><rect
         style="fill:#f2c83d;fill-opacity:1;stroke:none;stroke-width:0.319625;stroke-linecap:square;stroke-miterlimit:5.5;paint-order:stroke fill markers"
         id="rect52"
         width="9.5887661"
         height="4.794383"
         x="-49.200344"
         y="23.700216"
         transform="rotate(-90)" /><path
         id="rect33"
         style="fill:#e7a436;fill-opacity:1;stroke:none;stroke-width:0.319625;stroke-linecap:square;stroke-miterlimit:5.5;paint-order:stroke fill markers"
         d="m 9.3171874,160.04884 h 9.5888306 v -4.79464 h -4.794575 a 4.7943832,4.7943832 0 0 1 4.794575,-4.79426 H 9.3171874 Z" /><path
         id="rect34"
         style="fill:#f2c83d;fill-opacity:1;stroke-width:0.319625;stroke-linecap:square;stroke-miterlimit:5.5;paint-order:stroke fill markers"
         d="m 18.906018,160.04884 h 9.58851 v -9.5889 h -9.58851 a 4.7943832,4.7943832 0 0 1 4.794255,4.79426 h -4.794255 z" /><path
         id="path34"
         style="fill:#bb1f09;fill-opacity:1;stroke-width:0.319625;stroke-linecap:square;stroke-miterlimit:5.5;paint-order:stroke fill markers"
         d="m 9.3171235,150.45994 a 9.5887664,9.5887664 0 0 1 9.5887665,-9.58876 v 9.58876 z" /><path
         id="path35"
         style="fill:#263d8c;fill-opacity:1;stroke-width:0.319625;stroke-linecap:square;stroke-miterlimit:5.5;paint-order:stroke fill markers"
         d="m 18.90589,140.87118 a 9.5887664,9.5887664 0 0 1 9.588766,9.58876 H 18.90589 Z" /><path
         id="rect43"
         style="fill:#e7a436;fill-opacity:1;stroke-width:0.319625;stroke-linecap:square;stroke-miterlimit:5.5;paint-order:stroke fill markers"
         d="m 9.3171874,99.496099 h 9.5888306 v -4.794575 h -4.794575 a 4.7943832,4.7943832 0 0 1 4.794575,-4.794255 H 9.3171874 Z" /><path
         id="rect44"
         style="fill:#f2c83d;fill-opacity:1;stroke-width:0.319625;stroke-linecap:square;stroke-miterlimit:5.5;paint-order:stroke fill markers"
         d="m 18.906018,99.496099 h 9.58851 v -9.58883 h -9.58851 a 4.7943832,4.7943832 0 0 1 4.794255,4.794255 h -4.794255 z" /><path
         id="path44"
         style="fill:#bb1f09;fill-opacity:1;stroke-width:0.319625;stroke-linecap:square;stroke-miterlimit:5.5;paint-order:stroke fill markers"
         d="M 9.3171235,89.907205 A 9.5887664,9.5887664 0 0 1 18.90589,80.318439 v 9.588766 z" /><path
         id="path45"
         style="fill:#263d8c;fill-opacity:1;stroke-width:0.319625;stroke-linecap:square;stroke-miterlimit:5.5;paint-order:stroke fill markers"
         d="m 18.90589,80.318439 a 9.5887664,9.5887664 0 0 1 9.588766,9.588766 H 18.90589 Z" /><path
         id="path30"
         style="fill:#f2c83d;fill-opacity:1;stroke-width:0.319625;stroke-linecap:square;stroke-miterlimit:5.5;paint-order:stroke fill markers"
         d="m 9.3171874,170.98246 a 9.5887664,9.5887664 0 0 0 9.5888306,9.58883 v -9.58883 h -3.2e-4 v 4.79426 a 4.7943832,4.7943832 0 0 1 -4.794255,-4.79426 z" /><path
         id="path31"
         style="fill:#bb1f09;fill-opacity:1;stroke-width:0.319625;stroke-linecap:square;stroke-miterlimit:5.5;paint-order:stroke fill markers"
         d="m 9.3171874,170.98246 h 4.7942556 a 4.7943832,4.7943832 0 0 1 4.794255,-4.79425 v 4.79425 h 3.2e-4 v -9.58883 a 9.5887664,9.5887664 0 0 0 -9.5888306,9.58883 z" /><path
         id="rect31"
         style="fill:#263d8c;fill-opacity:1;stroke:none;stroke-width:0.319625;stroke-linecap:square;stroke-miterlimit:5.5;paint-order:stroke fill markers"
         d="m 18.906018,180.57129 h 9.58851 v -4.79457 a 4.7943832,4.7943832 0 0 1 -4.794255,-4.79426 h -4.794255 z" /><path
         id="rect32"
         style="fill:#e7a436;fill-opacity:1;stroke:none;stroke-width:0.319625;stroke-linecap:square;stroke-miterlimit:5.5;paint-order:stroke fill markers"
         d="m 18.906018,170.98246 h 4.794255 a 4.7943832,4.7943832 0 0 1 4.794255,-4.79425 v -4.79458 h -9.58851 z" /></g></g></svg>
