<?xml version="1.0" encoding="UTF-8" standalone="no"?>
<!-- Created with Inkscape (http://www.inkscape.org/) -->

<svg
   width="20mm"
   height="20mm"
   viewBox="0 0 20 20"
   version="1.1"
   id="svg5"
   xml:space="preserve"
   inkscape:version="1.2.2 (b0a8486541, 2022-12-01)"
   sodipodi:docname="cadoodle.svg"
   xmlns:inkscape="http://www.inkscape.org/namespaces/inkscape"
   xmlns:sodipodi="http://sodipodi.sourceforge.net/DTD/sodipodi-0.dtd"
   xmlns="http://www.w3.org/2000/svg"
   xmlns:svg="http://www.w3.org/2000/svg"><sodipodi:namedview
     id="namedview7"
     pagecolor="#ffffff"
     bordercolor="#000000"
     borderopacity="0.25"
     inkscape:showpageshadow="2"
     inkscape:pageopacity="0.0"
     inkscape:pagecheckerboard="0"
     inkscape:deskcolor="#d1d1d1"
     inkscape:document-units="mm"
     showgrid="false"
     inkscape:zoom="1.8230809"
     inkscape:cx="177.99539"
     inkscape:cy="13.987311"
     inkscape:window-width="1737"
     inkscape:window-height="1133"
     inkscape:window-x="66"
     inkscape:window-y="32"
     inkscape:window-maximized="1"
     inkscape:current-layer="layer1" /><defs
     id="defs2" /><g
     inkscape:label="Layer 1"
     inkscape:groupmode="layer"
     id="layer1"
     transform="translate(-19.578639,-99.960642)"><g
       id="g669"
       transform="matrix(0,-1.0017325,1.0017325,0,-99.121566,145.45676)"><path
         style="fill:#f0c63c;stroke-width:0.264583"
         d="m -52.142434,131.64569 c 3.003145,1.49846 1.452408,-2.57492 1.808937,-4.28829 -0.02665,-5.06342 -0.05329,-10.12684 -0.07995,-15.19026 -3.584225,0.47614 -7.369199,2.36176 -8.657948,5.95361 -0.758755,1.61972 -1.190518,3.61185 -0.748721,5.39381 0.353876,2.64362 1.944959,5.27378 4.188664,6.69503 1.09114,0.62256 2.205491,1.32586 3.489014,1.4361 z"
         id="path597" /><path
         style="fill:#f0c63c;stroke-width:0.264583"
         d="m -18.540352,127.11269 c -3.5e-5,1.63155 2.1e-5,3.2632 2.1e-5,4.89479 3.263195,0 6.526389,0 9.7895841,0 -0.1291846,-2.27421 0.2558131,-6.34374 -0.1948077,-7.49642 -0.5046856,1.72562 -3.9983234,3.62897 -4.8322974,2.26746 0,-1.52021 0,-3.04041 0,-4.56062 -1.5875,0 -3.175,0 -4.7625,0 0,1.6316 0,3.26319 0,4.89479 z"
         id="path595" /><path
         style="fill:#f0c63c;stroke-width:0.264583"
         d="m 41.784645,127.11269 c 0.184805,1.53623 -0.364466,3.80656 0.268522,4.8946 3.085643,0 6.171285,0 9.256928,0 -0.02267,-2.44958 0.03693,-4.9051 -0.03671,-7.351 -0.703426,1.24965 -4.163007,3.7709 -4.72624,1.91851 0,-1.4523 0,-2.9046 0,-4.3569 -1.5875,0 -3.175,0 -4.7625,0 0,1.6316 0,3.26319 0,4.89479 z"
         id="path593" /><path
         style="fill:#f0c63c;stroke-width:0.264583"
         d="m 96.553395,129.62623 c 0.09069,0.74774 -0.180696,1.85755 0.134036,2.38125 3.218516,0 6.437029,0 9.655549,0 0,-1.5875 0,-3.175 0,-4.7625 -3.21846,0 -6.436917,0 -9.655375,0 -0.331255,0.75938 -0.03023,1.59097 -0.13421,2.38125 z"
         id="path591" /><path
         style="fill:#f0c63c;stroke-width:0.264583"
         d="m -39.066305,120.56821 c -0.786748,1.56504 0.871334,1.04513 1.83136,1.12052 1.409793,-0.10749 3.503629,0.62972 3.455981,-1.5415 0.326197,-2.29846 3.432835,-2.41062 4.126113,-3.82903 0,-1.31375 0,-2.62749 0,-3.94123 -2.52665,-0.0216 -5.141125,1.0163 -6.770695,3.00499 -1.607426,1.23789 -2.127653,3.31948 -2.642759,5.18625 z"
         id="path589" /><path
         style="fill:#f0c63c;stroke-width:0.264583"
         d="m 1.1969091,120.82884 c -0.66256819,1.44836 1.318379,0.6613 2.133745,0.85989 2.4110536,0 4.8221073,0 7.2331609,0 0,-3.11137 0,-6.22275 0,-9.33412 -2.4890052,-0.005 -4.8431576,1.10361 -6.5565054,2.88984 -1.4941636,1.50188 -2.5346136,3.47478 -2.8104005,5.58439 z"
         id="path587" /><path
         style="fill:#f0c63c;stroke-width:0.264583"
         d="m 21.544375,120.56425 c -0.787571,1.56775 0.868613,1.05027 1.831378,1.12448 2.520327,0 5.040655,0 7.560982,0 -0.03505,-3.09748 0.07393,-6.2206 -0.06249,-9.29929 -2.065656,-0.15161 -4.513825,0.79601 -6.084053,2.30992 -1.454939,1.3792 -2.620787,3.05039 -3.030999,5.04697 -0.07555,0.27159 -0.146294,0.54448 -0.214813,0.81792 z"
         id="path585" /><path
         style="fill:#f0c63c;stroke-width:0.264583"
         d="m 62.951315,116.92623 c 0,1.5875 0,3.175 0,4.7625 3.263193,0 6.526387,0 9.78958,0 0,-3.175 0,-6.35 0,-9.525 -3.263193,0 -6.526387,0 -9.78958,0 0,1.5875 0,3.175 0,4.7625 z"
         id="path583" /><path
         style="fill:#f0c63c;stroke-width:0.264583"
         d="m 86.499225,116.92623 c -2e-5,1.5875 -4e-5,3.175 -6e-5,4.7625 3.290417,0 6.580833,0 9.87125,0 -0.15154,-3.1733 -0.370581,-6.34633 -0.34619,-9.525 -3.175,0 -6.35,0 -9.525,0 0,1.5875 0,3.175 0,4.7625 z"
         id="path358" /><path
         style="fill:#e6a335;stroke-width:0.264583"
         d="m -23.918479,131.04803 c 0.0519,0.31982 0.103797,0.63963 0.155697,0.95945 1.388032,0 2.776065,0 4.164097,0 0,-3.26319 0,-6.52639 0,-9.78958 -3.263194,0 -6.526389,0 -9.789583,0 0,1.51982 0,3.03964 0,4.55947 0.530367,0.37144 1.634686,0.23 2.386857,0.40324 1.362251,0.91489 2.967426,2.10389 3.082932,3.86742 z"
         id="path579" /><path
         style="fill:#e6a335;stroke-width:0.264583"
         d="m 9.0111711,131.72237 c 0.517189,0.0956 1.0315829,0.21161 1.5526439,0.28511 0,-3.26319 0,-6.52639 0,-9.78958 -3.1749999,0 -6.3499999,0 -9.5249999,0 0.02532,1.17766 0.45596,2.30149 0.71863,3.44159 1.261447,2.97984 4.04059,5.41168 7.253726,6.06288 z"
         id="path577" /><path
         style="fill:#e6a335;stroke-width:0.264583"
         d="m 29.420585,131.72837 c 0.50498,0.0938 1.00726,0.20738 1.51615,0.27888 0,-3.26319 0,-6.52639 0,-9.78958 -2.61344,0 -5.22687,0 -7.84031,0 -0.67217,0.13302 -2.1681,-0.4463 -1.63897,0.72553 0.0736,1.27772 0.46945,2.46222 1.06207,3.58978 0.31386,1.23804 1.34413,1.96908 2.21958,2.80969 1.16321,1.41049 2.97283,1.94174 4.68148,2.3857 z"
         id="path575" /><path
         style="fill:#e6a335;stroke-width:0.264583"
         d="m 96.553395,124.46663 c 0,0.74965 0,1.49931 0,2.24896 1.5875,0 3.175,0 4.762505,0 0,-1.49931 0,-2.99861 0,-4.49792 -1.498025,0 -2.996055,0 -4.494075,0 -0.60311,0.23602 -0.10679,1.57147 -0.26843,2.24896 z"
         id="path571" /><path
         style="fill:#e6a335;stroke-width:0.264583"
         d="m -18.540352,117.05853 c 0,1.6316 0,3.26319 0,4.89479 1.5875,0 3.175,0 4.7625,0 0,-0.91515 0,-1.8303 0,-2.74545 0.11969,-0.69865 -0.23704,-1.87371 0.17336,-2.28164 0.942985,-0.14073 1.782462,0.16991 2.583752,0.64708 1.1886031,0.29528 1.5867371,1.50578 2.2699721,2.38618 0,-2.59859 0,-5.19717 0,-7.79576 -3.2631951,0 -6.5263891,0 -9.7895841,0 0,1.6316 0,3.2632 0,4.8948 z"
         id="path569" /><path
         style="fill:#e6a335;stroke-width:0.264583"
         d="m 41.784645,117.06883 v 2e-5 c 3e-5,1.635 6e-5,3.27 9e-5,4.905 1.5434,-0.0509 3.08681,-0.1019 4.63021,-0.1528 0.0412,-1.34054 0.0825,-2.68108 0.12394,-4.02162 -0.37412,-1.77725 2.00372,-0.42317 2.82446,-0.0559 1.02142,0.37071 1.40512,1.37534 1.9443,2.22541 10e-4,-2.60174 10e-4,-5.20347 0.002,-7.80521 -3.175,0 -6.35,0 -9.525,0 0,1.63503 0,3.27007 0,4.9051 z"
         id="path565" /><path
         style="fill:#f4cf5a;stroke-width:0.264583"
         d="m 24.037535,128.89863 c 0.0456,0.0472 0.97287,1.137 0.73973,0.54553 -0.5395,-0.56593 -2.02221,-1.89117 -0.73973,-0.54553 z"
         id="path461" /><path
         style="fill:#f4cf5a;stroke-width:0.264583"
         d="m -37.061184,115.7848 c 0.353231,0.12325 0.771265,-0.69752 1.089866,-0.93997 1.417094,-1.46965 -0.673139,0.44664 -1.089866,0.93997 z"
         id="path427" /><path
         style="fill:#263c8b;stroke-width:0.264583"
         d="m -50.025768,127.14273 c 0,1.1495 0,2.29899 0,3.44849 -0.04822,0.881 -0.198268,1.87899 0.990907,1.33839 1.298268,-0.009 2.416689,-0.61312 3.544244,-1.1867 1.516755,-0.47704 2.329638,-1.91135 3.428893,-2.95619 1.131529,-1.60496 1.65532,-3.6211 1.885623,-5.56882 -3.283222,0 -6.566445,0 -9.849667,0 0,1.64161 0,3.28322 0,4.92483 z"
         id="path501" /><path
         style="fill:#263c8b;stroke-width:0.264583"
         d="m -39.177851,127.11273 c 0,1.6316 0,3.26319 0,4.89479 1.252112,0 2.504224,0 3.756337,0 0.997197,0.24074 1.489361,-0.16648 1.506011,-1.1838 0.07967,-0.90394 0.5476,-1.60396 1.19764,-2.20834 0.648533,-1.10563 1.997118,-1.20437 3.065012,-1.70683 0,-1.56354 0,-3.12707 0,-4.69061 -3.175,0 -6.35,0 -9.525,0 0,1.6316 0,3.26319 0,4.89479 z"
         id="path499" /><path
         style="fill:#263c8b;stroke-width:0.264583"
         d="m -8.4861849,127.12473 c 0,1.23295 0,2.4659 0,3.69885 -0.434167,1.51469 0.759395,1.22593 1.828201,0.81479 1.454597,-0.65343 3.226829,-0.96396 4.258193,-2.28032 0.901627,-0.88667 1.82832999,-1.75595 2.21724199,-2.99831 0.815392,-1.24083 0.815838,-2.72209 1.024953,-4.14179 -3.10952999,0 -6.21905899,0 -9.32858899,0 0,1.63559 0,3.27119 0,4.90678 z"
         id="path497" /><path
         style="fill:#263c8b;stroke-width:0.264583"
         d="m 10.828398,127.14683 c 3.15e-4,1.64269 4.5e-5,3.28597 1.35e-4,4.92888 1.318382,-0.23058 2.726858,-0.14587 3.903061,-0.87402 1.118387,-0.40134 2.091515,-1.02157 2.887601,-1.9086 1.094785,-0.77461 1.709344,-1.93604 2.348259,-3.07786 0.542361,-1.23763 0.760731,-2.65642 0.915111,-3.99728 -3.351389,0 -6.702778,0 -10.054167,0 0,1.64296 0,3.28592 0,4.92888 z"
         id="path495" /><path
         style="fill:#263c8b;stroke-width:0.264583"
         d="m 31.201315,127.14883 c 0,1.64358 0,3.28717 0,4.93075 1.36991,-0.15042 2.72499,-0.44364 4.00904,-0.95297 1.18277,-0.24103 1.98441,-1.11052 2.83902,-1.89266 0.98282,-0.64211 1.44063,-1.69513 1.95919,-2.70061 0.92733,-1.25844 0.88112,-2.84233 1.16681,-4.31527 -3.32469,0 -6.64937,0 -9.97406,0 0,1.64359 0,3.28717 0,4.93076 z"
         id="path493" /><path
         style="fill:#263c8b;stroke-width:0.264583"
         d="m 51.838815,127.11283 c 0,0.96053 0,1.92105 0,2.88158 0.20686,0.62207 -0.47798,2.13584 0.47358,2.01321 1.63239,-0.34637 3.43243,-0.47464 4.77896,-1.5624 1.68892,-0.83498 2.7393,-2.47045 3.62232,-4.07495 0.78105,-1.25786 0.82211,-2.72392 0.98843,-4.15223 -3.28776,0 -6.57553,0 -9.86329,0 0,1.6316 0,3.26319 0,4.89479 z"
         id="path491" /><path
         style="fill:#263c8b;stroke-width:0.264583"
         d="m 62.951315,127.11283 c 0,1.6316 0,3.26319 0,4.89479 3.26319,0 6.52639,0 9.78958,0 0,-3.26319 0,-6.52639 0,-9.78958 -3.26319,0 -6.52639,0 -9.78958,0 0,1.6316 0,3.26319 0,4.89479 z"
         id="path489" /><path
         style="fill:#263c8b;stroke-width:0.264583"
         d="m 86.499225,127.11283 c 0,1.6316 0,3.26319 0,4.89479 3.2632,0 6.52639,0 9.78959,0 0,-3.26319 0,-6.52639 0,-9.78958 -3.2632,0 -6.52639,0 -9.78959,0 0,1.6316 0,3.26319 0,4.89479 z"
         id="path354" /><path
         style="fill:#bb210b;stroke-width:0.264583"
         d="m 73.005485,129.48797 c 2e-5,0.83983 3e-5,1.67965 5e-5,2.51948 3.26981,0 6.53963,0 9.80944,0 -0.0507,-1.6316 -0.1015,-3.26319 -0.1522,-4.89479 -3.2191,-0.0481 -6.43819,-0.0961 -9.65729,-0.1442 0,0.83984 0,1.67967 0,2.51951 z"
         id="path485" /><path
         style="fill:#bb210b;stroke-width:0.264583"
         d="m -23.837828,121.4903 h 10e-6 c 0.0019,0.15432 0.0039,0.30869 0.0058,0.46302 1.033038,0 2.066076,0 3.099115,0 1.105385,0.25467 1.412961,-0.19957 1.061095,-1.23975 0.0029,-1.1259 -0.401506,-2.13184 -0.955098,-3.09383 -0.371138,-1.11355 -1.174509,-1.9184 -2.017572,-2.6949 -0.685655,-0.93286 -1.740061,-1.33462 -2.765234,-1.77849 -1.20634,-0.75108 -2.606513,-0.83463 -3.978556,-1.01504 0,1.55657 0,3.11313 0,4.6697 1.242274,0.38485 2.686995,0.34237 3.635814,1.34668 1.229259,0.64923 1.566992,2.10462 1.914626,3.34261 z"
         id="path483" /><path
         style="fill:#bb210b;stroke-width:0.264583"
         d="m -8.3097949,121.77693 0.08149,0.0815 0.0949,0.0949 c 2.452385,0 4.90477,0 7.35715599,0 0.76597,-0.0519 2.05379101,0.34745 1.485394,-0.85834 -0.0385,-1.62275 -0.87099,-3.01575 -1.493191,-4.4696 -0.82159399,-1.09555 -2.02139199,-1.92041 -2.98894899,-2.9115 -1.422538,-0.79672 -3.101841,-1.2203 -4.713187,-1.53692 0,2.38065 0,4.76129 0,7.14194 0.10636,0.79964 -0.219842,1.77846 0.17639,2.45803 z"
         id="path481" /><path
         style="fill:#bb210b;stroke-width:0.264583"
         d="m 11.092981,117.03527 c 0,1.63935 0,3.2787 0,4.91805 3.22645,0 6.4529,0 9.679354,0 0.1686,-1.39087 -0.624793,-3.55994 -1.40343,-4.95689 -0.608791,-1.43825 -2.011462,-2.23242 -3.074824,-3.30187 -1.572366,-0.87198 -3.41496,-1.30073 -5.2011,-1.57734 0,1.63935 0,3.2787 0,4.91805 z"
         id="path479" /><path
         style="fill:#bb210b;stroke-width:0.264583"
         d="m 31.377705,121.77693 0.0815,0.0815 0.0949,0.0949 c 2.83243,0 5.66487,0 8.4973,0 1.21733,0.38289 0.9355,-0.73325 0.9395,-1.56381 -0.43385,-1.97262 -1.45567,-3.87497 -2.77056,-5.41418 -2.00743,-1.62213 -4.43694,-2.65322 -7.01902,-2.84402 0,2.39586 0,4.79173 0,7.18759 0.10639,0.79964 -0.21984,1.77846 0.17639,2.45803 z"
         id="path477" /><path
         style="fill:#bb210b;stroke-width:0.264583"
         d="m 51.838815,117.05853 c 0,1.6316 0,3.26319 0,4.89479 2.79565,0 5.59129,0 8.38694,0 0.9266,0.075 1.85474,0.1513 1.35282,-1.04306 -0.0101,-1.1405 -0.37834,-2.17807 -0.93645,-3.16106 -0.45517,-1.48558 -1.73692,-2.39774 -2.73943,-3.50362 -1.76163,-1.19833 -3.93791,-1.90368 -6.06388,-2.08185 0,1.6316 0,3.2632 0,4.8948 z"
         id="path475" /><path
         style="fill:#bb210b;stroke-width:0.264583"
         d="m 96.553395,114.67728 c 0,0.83785 0,1.67569 0,2.51354 3.26319,0 6.526395,0 9.789585,0 0,-1.6757 0,-3.35139 0,-5.02709 -3.26319,0 -6.526395,0 -9.789585,0 0,0.83785 0,1.6757 0,2.51355 z"
         id="path473" /><path
         style="fill:#bb210b;stroke-width:0.264583"
         d="m -50.025768,114.52173 c 0,0.8015 0,1.603 0,2.4045 2.740234,0 5.480468,0 8.220702,0 -0.670494,-1.34379 -1.957151,-2.21504 -3.019601,-3.23167 -1.532323,-0.85 -3.327726,-1.28112 -5.068708,-1.55531 -0.30808,0.48265 -0.04481,1.6396 -0.132393,2.38248 z"
         id="path352" /></g></g></svg>
