<?xml version="1.0" encoding="UTF-8" standalone="no"?>
<!-- Created with Inkscape (http://www.inkscape.org/) -->

<svg
   width="19.999996mm"
   height="18.002733mm"
   viewBox="0 0 19.999996 18.002733"
   version="1.1"
   id="svg5"
   inkscape:version="1.2.2 (b0a8486541, 2022-12-01)"
   sodipodi:docname="OpenHardwareLogo.svg"
   xmlns:inkscape="http://www.inkscape.org/namespaces/inkscape"
   xmlns:sodipodi="http://sodipodi.sourceforge.net/DTD/sodipodi-0.dtd"
   xmlns="http://www.w3.org/2000/svg"
   xmlns:svg="http://www.w3.org/2000/svg">
  <sodipodi:namedview
     id="namedview7"
     pagecolor="#ffffff"
     bordercolor="#666666"
     borderopacity="1.0"
     inkscape:pageshadow="2"
     inkscape:pageopacity="0.0"
     inkscape:pagecheckerboard="0"
     inkscape:document-units="mm"
     showgrid="false"
     inkscape:zoom="7.8403117"
     inkscape:cx="43.93958"
     inkscape:cy="75.826067"
     inkscape:window-width="1737"
     inkscape:window-height="1133"
     inkscape:window-x="0"
     inkscape:window-y="0"
     inkscape:window-maximized="1"
     inkscape:current-layer="layer2"
     fit-margin-top="0"
     fit-margin-left="0"
     fit-margin-right="0"
     fit-margin-bottom="0"
     inkscape:showpageshadow="2"
     inkscape:deskcolor="#d1d1d1" />
  <defs
     id="defs2" />
  <g
     inkscape:groupmode="layer"
     id="layer2"
     inkscape:label="Slice 1">
    <path
       style="fill:none;stroke:#f90000;stroke-width:0.0668755;stroke-opacity:1"
       d="m 7.3986309,24.599522 c -0.503696,0.495606 -0.945537,0.901101 -0.981869,0.901101 -0.03633,0 -0.512487,-0.30094 -1.058121,-0.668755 -0.545634,-0.367816 -1.038841,-0.668756 -1.096017,-0.668756 -0.106624,0 -1.974468,0.723033 -2.055378,0.795626 -0.02472,0.02218 -0.1429,0.582011 -0.262631,1.244079 -0.119732,0.662068 -0.246141,1.241378 -0.28091,1.287355 -0.08137,0.107601 -2.55714635,0.120924 -2.62315665,0.01412 -0.0236076,-0.03822 -0.14676145,-0.632059 -0.27365105,-1.319652 -0.1268896,-0.687594 -0.2522879,-1.269431 -0.2786632,-1.292972 -0.026378,-0.02354 -0.475165,-0.223256 -0.9973076,-0.443811 -0.7948105,-0.33573 -0.972143,-0.388823 -1.0893621,-0.326157 -0.077005,0.04117 -0.5857365,0.380675 -1.1305136,0.75446 l -0.9905008,0.67961 -0.9441147,-0.947112 -0.9441121,-0.947112 0.7334863,-1.068452 c 0.4616753,-0.672509 0.7331476,-1.130985 0.7325662,-1.237198 -5.055e-4,-0.09281 -0.1609361,-0.559968 -0.3565052,-1.038128 l -0.3555826,-0.869383 -0.4292818,-0.08624 c -0.2361064,-0.04743 -0.8505992,-0.16781 -1.3655432,-0.267502 l -0.9362564,-0.181259 -0.016505,-1.270636 c -0.00907,-0.698849 0.00597,-1.302435 0.033437,-1.341302 0.027465,-0.03887 0.6066751,-0.17078 1.2871352,-0.293141 0.6804576,-0.122361 1.2777477,-0.237852 1.3273085,-0.256649 0.049558,-0.01881 0.1503052,-0.172776 0.2238805,-0.342177 0.3633019,-0.836485 0.5888278,-1.443514 0.5888278,-1.584896 0,-0.08914 -0.317813,-0.624662 -0.7375228,-1.242751 l -0.7375251,-1.086114 0.9205374,-0.922302 c 0.5062947,-0.507265 0.9443371,-0.9223025 0.973427,-0.9223025 0.02909,0 0.4910761,0.301298 1.0266326,0.6695515 0.5355564,0.368254 1.0316827,0.700562 1.1025004,0.738464 0.1026527,0.05494 0.3254362,-0.01469 1.0987066,-0.343408 0.5334687,-0.226774 0.9853268,-0.437208 1.004127,-0.46763 0.027035,-0.04374 0.49853745,-2.4824715 0.49853745,-2.5785555 0,-0.01357 0.599853,-0.02469 1.333006,-0.02469 1.21129505,0 1.33627605,0.01069 1.36883405,0.117032 0.01972,0.06437 0.127582,0.628074 0.239721,1.252677 0.112136,0.624605 0.240987,1.1697775 0.286334,1.2114925 0.04534,0.04172 0.528889,0.248711 1.07454,0.459989 l 0.992094,0.384145 1.066207,-0.724084 1.066204,-0.7240815 0.943177,0.9431745 0.943177,0.943177 -0.685963,0.994047 c -0.377282,0.546726 -0.699988,1.030472 -0.717128,1.074993 -0.01714,0.04452 0.08315,0.292593 0.222867,0.55127 0.160244,0.296678 0.230409,0.493212 0.190049,0.532316 -0.03519,0.03409 -0.906618,0.408566 -1.936501,0.832158 -1.029886,0.423593 -1.98127,0.81591 -2.114187,0.871812 l -0.241673,0.101642 -0.249414,-0.362138 c -0.694387,-1.008223 -1.713697,-1.477706 -2.82781405,-1.302466 -1.74051245,0.273764 -2.80552635,1.961801 -2.29025875,3.630038 0.5890653,1.907176 2.92906175,2.600958 4.5121338,1.337794 0.127746,-0.10193 0.370758,-0.373948 0.54003,-0.604485 0.169272,-0.230536 0.329344,-0.419158 0.355712,-0.419158 0.06498,0 4.237939,1.732987 4.284087,1.779137 0.02012,0.02012 -0.08179,0.260544 -0.226468,0.534281 l -0.263046,0.497703 0.66991,0.985242 c 0.368451,0.541882 0.692451,1.023632 0.720002,1.070554 0.03323,0.0566 -0.258124,0.388578 -0.865719,0.986415 z"
       id="path882" />
  </g>
</svg>
