<?xml version="1.0" encoding="UTF-8" standalone="no"?>
<!-- Created with Inkscape (http://www.inkscape.org/) -->

<svg
   width="20.000002mm"
   height="19.360394mm"
   viewBox="0 0 20.000002 19.360394"
   version="1.1"
   id="svg5"
   inkscape:version="1.2.2 (b0a8486541, 2022-12-01)"
   sodipodi:docname="OpenSource.svg"
   xmlns:inkscape="http://www.inkscape.org/namespaces/inkscape"
   xmlns:sodipodi="http://sodipodi.sourceforge.net/DTD/sodipodi-0.dtd"
   xmlns="http://www.w3.org/2000/svg"
   xmlns:svg="http://www.w3.org/2000/svg">
  <sodipodi:namedview
     id="namedview7"
     pagecolor="#ffffff"
     bordercolor="#666666"
     borderopacity="1.0"
     inkscape:pageshadow="2"
     inkscape:pageopacity="0.0"
     inkscape:pagecheckerboard="0"
     inkscape:document-units="mm"
     showgrid="false"
     fit-margin-top="0"
     fit-margin-left="0"
     fit-margin-right="0"
     fit-margin-bottom="0"
     inkscape:zoom="5.1241863"
     inkscape:cx="40.494234"
     inkscape:cy="73.279927"
     inkscape:window-width="1737"
     inkscape:window-height="1133"
     inkscape:window-x="66"
     inkscape:window-y="32"
     inkscape:window-maximized="1"
     inkscape:current-layer="layer1"
     inkscape:showpageshadow="2"
     inkscape:deskcolor="#d1d1d1" />
  <defs
     id="defs2" />
  <g
     inkscape:label="Slice 1"
     inkscape:groupmode="layer"
     id="layer1"
     transform="translate(354.2033,206.78487)">
    <path
       style="fill:none;stroke:#00dd00;stroke-width:0.208;stroke-opacity:1;stroke-dasharray:none"
       d="m -345.2512,-183.93659 4.6e-4,-4.1e-4 c 0.0205,-0.08 0.0107,-0.1578 -0.03,-0.238 -0.023,-0.0453 -0.082,-0.10875 -0.12738,-0.13675 -0.0128,-0.008 -1.36001,-0.52793 -2.99374,-1.15553 l -2.9704,-1.1411 -0.092,-4.3e-4 c -0.0871,-4e-4 -0.0949,0.001 -0.14654,0.0264 -0.1055,0.0519 -0.13061,0.0868 -0.23327,0.3239 -0.0968,0.2235 -0.24156,0.46168 -0.4061,0.66806 -0.0947,0.11874 -0.34071,0.36499 -0.45817,0.45859 -0.45397,0.3617 -0.97452,0.57703 -1.56994,0.64953 -0.13132,0.0164 -0.51893,0.0138 -0.65971,-0.004 -0.68204,-0.0863 -1.30062,-0.38504 -1.77507,-0.85733 -0.23986,-0.23875 -0.41864,-0.48586 -0.56795,-0.78499 -0.16917,-0.33892 -0.26358,-0.66553 -0.30488,-1.05432 -0.017,-0.15574 -0.0124,-0.51721 0.008,-0.66176 0.053,-0.37624 0.15238,-0.69301 0.31688,-1.01044 0.45726,-0.88235 1.3023,-1.47101 2.30167,-1.60334 0.2325,-0.0308 0.58336,-0.0252 0.82149,0.0131 0.98569,0.1586 1.8129,0.76652 2.24334,1.64866 0.0314,0.0643 0.0687,0.14622 0.0829,0.18212 0.0575,0.14539 0.10328,0.20254 0.20038,0.25034 0.0516,0.0255 0.0593,0.0268 0.14654,0.0264 l 0.092,-4.6e-4 2.97133,-1.14151 c 1.63424,-0.62783 2.97935,-1.14615 2.98935,-1.15115 0.038,-0.0203 0.10902,-0.0967 0.13172,-0.14173 0.0342,-0.0677 0.0466,-0.14399 0.0343,-0.21079 -0.0209,-0.11348 -0.22843,-0.5945 -0.42378,-0.9823 -0.40192,-0.79788 -0.88973,-1.51288 -1.48982,-2.18372 -0.14474,-0.1618 -0.59757,-0.61507 -0.74755,-0.74827 -0.7309,-0.64914 -1.45213,-1.13575 -2.29441,-1.54803 -2.16278,-1.05864 -4.60961,-1.30518 -6.91551,-0.69679 -2.01645,0.53202 -3.8237,1.67334 -5.13618,3.24361 -1.22892,1.47031 -2.01671,3.27576 -2.25914,5.17746 -0.24906,1.95384 0.0852,3.91145 0.97308,5.69939 0.47591,0.95829 1.06245,1.7854 1.80967,2.55189 0.72295,0.7416 1.60834,1.39216 2.55733,1.87907 1.15232,0.59123 2.45192,0.96797 3.7119,1.07606 1.38321,0.11865 2.73677,-0.0443 4.05277,-0.48776 1.31331,-0.4426 2.53771,-1.16118 3.55477,-2.08624 0.14701,-0.13371 0.48889,-0.47478 0.62552,-0.62404 0.62462,-0.68234 1.12695,-1.41051 1.54964,-2.24635 0.17473,-0.34553 0.3925,-0.84449 0.4265,-0.97704 z"
       id="path836" />
  </g>
</svg>
