<?xml version="1.0" encoding="UTF-8" standalone="no"?>
<!-- Created with Inkscape (http://www.inkscape.org/) -->

<svg
   width="19.999996mm"
   height="18.002733mm"
   viewBox="0 0 19.999996 18.002733"
   version="1.1"
   id="svg5"
   inkscape:version="1.2.2 (b0a8486541, 2022-12-01)"
   sodipodi:docname="OpenHardwareLogo.svg"
   xmlns:inkscape="http://www.inkscape.org/namespaces/inkscape"
   xmlns:sodipodi="http://sodipodi.sourceforge.net/DTD/sodipodi-0.dtd"
   xmlns="http://www.w3.org/2000/svg"
   xmlns:svg="http://www.w3.org/2000/svg">
  <sodipodi:namedview
     id="namedview7"
     pagecolor="#ffffff"
     bordercolor="#666666"
     borderopacity="1.0"
     inkscape:pageshadow="2"
     inkscape:pageopacity="0.0"
     inkscape:pagecheckerboard="0"
     inkscape:document-units="mm"
     showgrid="false"
     inkscape:zoom="7.8403117"
     inkscape:cx="44.067126"
     inkscape:cy="75.953613"
     inkscape:window-width="1737"
     inkscape:window-height="1133"
     inkscape:window-x="66"
     inkscape:window-y="32"
     inkscape:window-maximized="1"
     inkscape:current-layer="layer2"
     fit-margin-top="0"
     fit-margin-left="0"
     fit-margin-right="0"
     fit-margin-bottom="0"
     inkscape:showpageshadow="2"
     inkscape:deskcolor="#d1d1d1" />
  <defs
     id="defs2" />
  <g
     inkscape:groupmode="layer"
     id="layer2"
     inkscape:label="Slice 1">
    <path
       style="fill:none;stroke:#f90000;stroke-width:0.0668755;stroke-opacity:1"
       d="m 7.3986309,24.599522 h -6.9e-6 C 8.006219,24.001685 8.297573,23.669707 8.264343,23.613107 8.236792,23.566185 7.912792,23.084435 7.544341,22.542553 L 6.874431,21.557311 7.137477,21.059608 C 7.282155,20.785871 7.384065,20.545447 7.363945,20.525327 7.317797,20.479177 3.144838,18.74619 3.079858,18.74619 c -0.026368,0 -0.18644,0.188622 -0.355712,0.419158 -0.169272,0.230537 -0.412284,0.502555 -0.54003,0.604485 -1.58307205,1.263164 -3.9230685,0.569382 -4.5121338,-1.337794 -0.5152676,-1.668237 0.5497463,-3.356274 2.29025875,-3.630038 C 1.076358,14.626761 2.095668,15.096244 2.790055,16.104467 l 0.249414,0.362138 0.241673,-0.101642 C 3.414059,16.309061 4.365443,15.916744 5.395329,15.493151 6.425212,15.069559 7.29664,14.695083 7.33183,14.660993 7.37219,14.621889 7.302025,14.425355 7.141781,14.128677 7.002064,13.87 6.901774,13.621927 6.918914,13.577407 6.936054,13.532886 7.25876,13.04914 7.636042,12.502414 L 8.322005,11.508367 7.378828,10.56519 6.435651,9.6220155 5.369447,10.346097 4.30324,11.070181 3.311146,10.686036 C 2.765495,10.474758 2.281946,10.267767 2.236606,10.226047 2.191259,10.184332 2.062408,9.6391595 1.950272,9.0145545 1.838133,8.3899515 1.730271,7.8262475 1.710551,7.7618775 1.677993,7.6555355 1.553012,7.6448455 0.34171695,7.6448455 c -0.733153,0 -1.333006,0.01112 -1.333006,0.02469 0,0.096084 -0.47150245,2.5348155 -0.49853745,2.5785555 -0.0188,0.03042 -0.4706583,0.240856 -1.004127,0.46763 -0.7732704,0.328718 -0.9960539,0.398348 -1.0987066,0.343408 -0.070818,-0.0379 -0.566944,-0.37021 -1.1025004,-0.738464 -0.5355565,-0.3682535 -0.9975426,-0.6695515 -1.0266326,-0.6695515 -0.02909,0 -0.4671323,0.4150375 -0.973427,0.9223025 l -0.9205374,0.922302 0.7375251,1.086114 c 0.4197098,0.618089 0.7375228,1.153611 0.7375228,1.242751 0,0.141382 -0.2255259,0.748411 -0.5888278,1.584896 -0.073575,0.169401 -0.1743225,0.323367 -0.2238805,0.342177 -0.049561,0.0188 -0.6468509,0.134288 -1.3273085,0.256649 -0.6804601,0.122361 -1.2596702,0.254271 -1.2871352,0.293141 -0.027467,0.03887 -0.042507,0.642453 -0.033437,1.341302 l 0.016505,1.270636 0.9362564,0.181259 c 0.514944,0.09969 1.1294368,0.220072 1.3655432,0.267502 l 0.4292818,0.08624 0.3555826,0.869383 c 0.1955691,0.47816 0.3559997,0.945318 0.3565052,1.038128 5.814e-4,0.106213 -0.2708909,0.564689 -0.7325662,1.237198 l -0.7334863,1.068452 0.9441121,0.947112 0.9441147,0.947112 0.9905008,-0.67961 c 0.5447771,-0.373785 1.0535086,-0.71329 1.1305136,-0.75446 0.1172191,-0.06267 0.2945516,-0.0096 1.0893621,0.326157 0.5221426,0.220555 0.9709296,0.420271 0.9973076,0.443811 0.026375,0.02354 0.1517736,0.605378 0.2786632,1.292972 0.1268896,0.687593 0.25004345,1.281432 0.27365105,1.319652 0.0660103,0.106804 2.54178665,0.09348 2.62315665,-0.01412 0.034769,-0.04598 0.161178,-0.625287 0.28091,-1.287355 0.119731,-0.662068 0.237911,-1.221899 0.262631,-1.244079 0.08091,-0.07259 1.948754,-0.795626 2.055378,-0.795626 0.057176,0 0.550383,0.30094 1.096017,0.668756 0.545634,0.367815 1.021791,0.668755 1.058121,0.668755 0.036332,0 0.478173,-0.405495 0.981869,-0.901101 z"
       id="path882" />
  </g>
</svg>
