<?xml version="1.0" encoding="UTF-8" standalone="no"?>
<!-- Created with Inkscape (http://www.inkscape.org/) -->

<svg
   width="20.000002mm"
   height="19.360394mm"
   viewBox="0 0 20.000002 19.360394"
   version="1.1"
   id="svg5"
   inkscape:version="1.2.2 (b0a8486541, 2022-12-01)"
   sodipodi:docname="OpenSource.svg"
   xmlns:inkscape="http://www.inkscape.org/namespaces/inkscape"
   xmlns:sodipodi="http://sodipodi.sourceforge.net/DTD/sodipodi-0.dtd"
   xmlns="http://www.w3.org/2000/svg"
   xmlns:svg="http://www.w3.org/2000/svg">
  <sodipodi:namedview
     id="namedview7"
     pagecolor="#ffffff"
     bordercolor="#666666"
     borderopacity="1.0"
     inkscape:pageshadow="2"
     inkscape:pageopacity="0.0"
     inkscape:pagecheckerboard="0"
     inkscape:document-units="mm"
     showgrid="false"
     fit-margin-top="0"
     fit-margin-left="0"
     fit-margin-right="0"
     fit-margin-bottom="0"
     inkscape:zoom="5.1241863"
     inkscape:cx="40.103928"
     inkscape:cy="73.279927"
     inkscape:window-width="1737"
     inkscape:window-height="1133"
     inkscape:window-x="0"
     inkscape:window-y="0"
     inkscape:window-maximized="1"
     inkscape:current-layer="layer1"
     inkscape:showpageshadow="2"
     inkscape:deskcolor="#d1d1d1" />
  <defs
     id="defs2" />
  <g
     inkscape:label="Slice 1"
     inkscape:groupmode="layer"
     id="layer1"
     transform="translate(354.2033,206.78487)">
    <path
       style="fill:none;stroke:#000000;stroke-width:0.00835075;stroke-opacity:1"
       d="m -345.2512,-183.93659 c -0.034,0.13255 -0.25177,0.63151 -0.4265,0.97704 -0.42269,0.83584 -0.92502,1.56401 -1.54964,2.24635 -0.13663,0.14926 -0.47851,0.49033 -0.62552,0.62404 -1.01706,0.92506 -2.24146,1.64364 -3.55477,2.08624 -1.316,0.4435 -2.66956,0.60641 -4.05277,0.48776 -1.25998,-0.10809 -2.55958,-0.48483 -3.7119,-1.07606 -0.94899,-0.48691 -1.83438,-1.13747 -2.55733,-1.87907 -0.74722,-0.76649 -1.33376,-1.5936 -1.80967,-2.55189 -0.88791,-1.78794 -1.22214,-3.74555 -0.97308,-5.69939 0.24243,-1.9017 1.03022,-3.70715 2.25914,-5.17746 1.31248,-1.57027 3.11973,-2.71159 5.13618,-3.24361 2.3059,-0.60839 4.75273,-0.36185 6.91551,0.69679 0.84228,0.41228 1.56351,0.89889 2.29441,1.54803 0.14998,0.1332 0.60281,0.58647 0.74755,0.74827 0.60009,0.67084 1.0879,1.38584 1.48982,2.18372 0.19535,0.3878 0.40287,0.86882 0.42378,0.9823 0.0123,0.0668 -1.3e-4,0.14306 -0.0343,0.21079 -0.0227,0.045 -0.0937,0.1214 -0.13172,0.14173 -0.01,0.005 -1.35511,0.52332 -2.98935,1.15115 l -2.97133,1.14151 -0.092,4.6e-4 c -0.0872,4.4e-4 -0.0949,-9.5e-4 -0.14654,-0.0264 -0.0971,-0.0478 -0.14283,-0.10495 -0.20038,-0.25034 -0.0142,-0.0359 -0.0515,-0.11782 -0.0829,-0.18212 -0.43044,-0.88214 -1.25765,-1.49006 -2.24334,-1.64866 -0.23813,-0.0383 -0.58899,-0.0439 -0.82149,-0.0131 -0.99937,0.13233 -1.84441,0.72099 -2.30167,1.60334 -0.1645,0.31743 -0.26384,0.6342 -0.31688,1.01044 -0.0204,0.14455 -0.025,0.50602 -0.008,0.66176 0.0413,0.38879 0.13571,0.7154 0.30488,1.05432 0.14931,0.29913 0.32809,0.54624 0.56795,0.78499 0.47445,0.47229 1.09303,0.77105 1.77507,0.85733 0.14078,0.0178 0.52839,0.0204 0.65971,0.004 0.59542,-0.0725 1.11597,-0.28783 1.56994,-0.64953 0.11746,-0.0936 0.3635,-0.33985 0.45817,-0.45859 0.16454,-0.20638 0.30932,-0.44456 0.4061,-0.66806 0.10266,-0.2371 0.12777,-0.27196 0.23327,-0.3239 0.0516,-0.0254 0.0594,-0.0268 0.14654,-0.0264 l 0.092,4.3e-4 2.9704,1.1411 c 1.63373,0.6276 2.98091,1.14759 2.99374,1.15553 0.0454,0.028 0.10436,0.0914 0.12738,0.13675 0.0407,0.0802 0.0505,0.15799 0.03,0.238 z"
       id="path836" />
  </g>
</svg>
