<?xml version="1.0" encoding="UTF-8" standalone="no"?>
<!-- Created with Inkscape (http://www.inkscape.org/) -->

<svg
   width="19.999939mm"
   height="16.750938mm"
   viewBox="0 0 19.999938 16.750938"
   version="1.1"
   id="svg5"
   inkscape:version="1.2.2 (b0a8486541, 2022-12-01)"
   sodipodi:docname="scribble2.svg"
   xmlns:inkscape="http://www.inkscape.org/namespaces/inkscape"
   xmlns:sodipodi="http://sodipodi.sourceforge.net/DTD/sodipodi-0.dtd"
   xmlns="http://www.w3.org/2000/svg"
   xmlns:svg="http://www.w3.org/2000/svg">
  <sodipodi:namedview
     id="namedview7"
     pagecolor="#ffffff"
     bordercolor="#000000"
     borderopacity="0.25"
     inkscape:pageshadow="2"
     inkscape:pageopacity="0.0"
     inkscape:pagecheckerboard="0"
     inkscape:document-units="mm"
     showgrid="false"
     inkscape:zoom="5.6671772"
     inkscape:cx="24.791884"
     inkscape:cy="40.849261"
     inkscape:window-width="1737"
     inkscape:window-height="1133"
     inkscape:window-x="0"
     inkscape:window-y="0"
     inkscape:window-maximized="1"
     inkscape:current-layer="layer1"
     inkscape:showpageshadow="2"
     inkscape:deskcolor="#d1d1d1"
     fit-margin-top="0"
     fit-margin-left="0"
     fit-margin-right="0"
     fit-margin-bottom="0" />
  <defs
     id="defs2" />
  <g
     inkscape:label="Layer 1"
     inkscape:groupmode="layer"
     id="layer1"
     style="display:inline"
     transform="translate(-0.66682548,-0.55843154)">
    <path
       id="path791-6"
       style="display:inline;fill:#ff00ff"
       d="m -7.919845,25.157288 c 0.10677,-0.05206 0.057093,-0.369177 0.217416,-0.726786 0.076001,-0.171644 0.213145,-0.362062 0.405896,-0.475957 0.2032719,-0.138587 0.4937929,-0.1739 0.8589159,-0.16156 0.322221,0.018 0.634701,0.117949 1.103485,0.233524 0.3897511,0.107701 0.8914461,0.224804 1.4917651,0.223234 0.572581,0.0081 1.233176,-0.18481 1.830673,-0.706423 0.348531,-0.342286 0.593129,-0.759156 0.709596,-1.210339 0.11217,-0.431715 0.13603,-0.864411 0.07997,-1.271663 -0.119608,-0.780773 -0.391778,-1.429639 -0.662425,-1.957229 -0.228103,-0.510618 -0.442482,-0.923147 -0.457902,-1.226198 -0.048628,-0.64179 0.494376,-0.36961 0.961865,-0.127002 0.59364898,0.308081 1.32799298,1.140309 2.640847,1.782233 0.861528,0.385213 1.791062,0.534494 2.705045,0.456117 0.963435,-0.08467 1.857653,-0.415731 2.618598,-0.929203 0.8234,-0.558217 1.444811,-1.296534 1.856936,-2.110008 0.463414,-0.919756 0.636328,-1.884571 0.600685,-2.775011 v -2e-6 C 8.994691,13.067532 8.636984,12.140192 8.204698,11.437306 7.815183,10.807194 7.372919,10.364722 7.020981,10.073088 6.725702,9.8284061 6.418983,9.6284362 6.112767,9.4676096 5.057936,8.916688 4.053021,8.8449701 3.328283,8.935939 1.875874,9.1213819 1.354755,9.8000455 1.209839,10.246541 c -0.141395,0.435643 0.06668,0.793137 0.239482,1.08157 0.193661,0.323244 0.384318,0.59003 0.71485,0.820452 0.365109,0.254527 0.651571,0.320517 1.178088,0.522087 0.2156746,0.08112 0.539257,0.209266 0.804036,0.380962 0.08129,0.05177 0.166558,0.113086 0.251944,0.184087 0.100435,0.08352 0.237443,0.212038 0.353702,0.382643 0.129779,0.187146 0.259015,0.468229 0.294844,0.787867 v 10e-7 c 0.03052,0.254341 5.01e-4,0.568239 -0.116709,0.857579 C 4.829041,15.518543 4.64362,15.78505 4.400051,15.984472 4.177227,16.169469 3.875768,16.316674 3.5593705,16.375786 3.260137,16.433656 2.913206,16.415286 2.598368,16.311836 2.075801,16.191333 1.337784,15.486508 0.09042498,14.884605 -0.52600602,14.569521 -1.297571,14.378877 -2.165078,14.41306 c -0.435711,0.02626 -0.879034,0.142518 -1.3069,0.351532 l -4e-6,2e-6 c -0.432404,0.211386 -0.815073,0.533835 -1.119549,0.951206 -0.323193,0.472426 -0.497525,0.974167 -0.538195,1.46339 -0.04135,0.487912 0.0094,0.935383 0.124869,1.32945 0.2442059,0.791314 0.600131,1.376529 0.899202,1.821292 0.2864739,0.481824 0.5301469,0.820713 0.598147,1.125833 0.04041,0.151574 0.06725,0.286086 0.05795,0.39095 -0.0091,0.103545 -0.02529,0.201822 -0.05727,0.253918 -0.01928,0.116661 -0.244648,0.208758 -0.492518,0.285743 -0.281122,0.07205 -0.674948,0.0436 -1.07567,0.0246 -0.4762161,-0.0363 -0.9541731,-0.0563 -1.4634331,0.02197 -0.617711,0.08439 -1.1406659,0.39586 -1.4803579,0.796097 -0.306676,0.382318 -0.390176,0.79528 -0.375266,1.114087 0.03444,0.693771 0.421794,0.839723 0.474224,0.81416 z"
       sodipodi:nodetypes="sccccccccccsccccsscsccsssccscssccccccssccccccccsszsss" />
  </g>
</svg>
