<?xml version="1.0" encoding="UTF-8" standalone="no"?>
<svg
   id="Layer_1"
   data-name="Layer 1"
   viewBox="0 0 29.999999 30"
   version="1.1"
   sodipodi:docname="simplified logo-color-flat.svg"
   inkscape:version="1.2.2 (b0a8486541, 2022-12-01)"
   width="30"
   height="30"
   xmlns:inkscape="http://www.inkscape.org/namespaces/inkscape"
   xmlns:sodipodi="http://sodipodi.sourceforge.net/DTD/sodipodi-0.dtd"
   xmlns="http://www.w3.org/2000/svg"
   xmlns:svg="http://www.w3.org/2000/svg">
  <sodipodi:namedview
     id="namedview77"
     pagecolor="#ffffff"
     bordercolor="#000000"
     borderopacity="0.25"
     inkscape:pageshadow="2"
     inkscape:pageopacity="0.0"
     inkscape:pagecheckerboard="0"
     showgrid="false"
     inkscape:zoom="6.5666096"
     inkscape:cx="-0.22842838"
     inkscape:cy="45.761819"
     inkscape:window-width="1737"
     inkscape:window-height="1133"
     inkscape:window-x="66"
     inkscape:window-y="32"
     inkscape:window-maximized="1"
     inkscape:current-layer="layer1"
     inkscape:showpageshadow="2"
     inkscape:deskcolor="#d1d1d1" />
  <defs
     id="defs4">
    <style
       id="style2">.cls-1{fill:#ff7b00;}.cls-2{fill:#86a0a6;}.cls-10,.cls-11,.cls-12,.cls-13,.cls-14,.cls-15,.cls-16,.cls-2,.cls-4,.cls-5,.cls-6,.cls-7,.cls-8,.cls-9{fill-rule:evenodd;}.cls-3{fill:#ffb700;}.cls-4{fill:#fff;}.cls-5{fill:#c78500;}.cls-6{fill:#cfc759;}.cls-7{fill:#82c759;}.cls-8{fill:#387859;}.cls-9{fill:#546959;}.cls-10{fill:#ad9459;}.cls-11{fill:#8f4059;}.cls-12{fill:#54cc59;}.cls-13{fill:#e07845;}.cls-14{fill:#54a359;}.cls-15{fill:#802433;}.cls-16{fill:#544085;}</style>
  </defs>
  <g
     inkscape:groupmode="layer"
     id="layer1"
     inkscape:label="Layer 3"
     style="display:inline"
     transform="matrix(0,-0.19388188,0.19388188,0,-101.8574,34.288522)">
    <path
       id="path12"
       style="stroke:#86a0a6;stroke-opacity:1"
       class="cls-2"
       d="m 93.474609,444.84961 c -11.836004,-0.9256 3.321806,13.58417 -7.679326,13.90118 -26.18347,9.67051 -54.865078,9.66832 -82.3032074,7.04904 -9.8161784,-1.36341 -20.2125656,-3.39235 -28.0389506,-9.90335 4.367335,-6.48427 1.550597,-14.18951 -7.102265,-9.91231 -7.994438,3.81795 -14.172823,13.37204 -12.232604,22.32515 9.187559,8.74696 7.467078,22.25133 7.508924,33.84846 -0.157536,10.79965 -0.962453,21.61307 -0.273664,32.40863 20.742531,15.63248 46.1987914,26.8424 72.661,24.75713 24.067294,-1.5755 48.458281,-9.90245 66.518684,-26.2669 2.76104,-7.43921 -2.627034,-15.28076 -0.32582,-23.02483 1.72951,-8.92209 0.77685,-17.93156 0.32582,-26.89509 0.42319,-9.10578 12.21136,-15.66998 5.9907,-25.33498 -2.80498,-6.07308 -8.03271,-12.12566 -15.049291,-12.95213 z" />
    <path
       style="fill:#ffb700;fill-opacity:1;stroke:#ffb700;stroke-opacity:1"
       d="m 29.94445,224.39754 c 1.552708,4.22006 5.422585,8.35717 0.01362,12.77596 -5.691588,5.16447 -11.260295,14.28284 -4.101664,20.79208 6.613121,6.18584 1.354492,14.98501 -3.576915,20.34555 -13.2729522,17.06741 -34.896336,24.44158 -49.097611,40.44762 -8.198307,9.9075 -10.068605,27.6264 1.512571,35.77746 -7.498243,7.63951 -20.013304,12.0077 -21.218189,24.2103 -3.923331,18.91619 8.154961,35.62698 16.220659,51.64315 6.12111,10.34732 12.012387,22.88488 23.8819685,27.57511 15.8638485,4.04874 32.4910415,3.36556 48.7379985,3.08217 13.980375,-0.9072 29.141487,-2.21219 40.537723,-11.20018 6.867855,-7.91667 8.524173,-19.86542 4.53906,-29.5 6.285325,-10.19922 17.76581,-18.43317 17.46533,-31.59493 -0.31068,-16.11251 -5.092134,-32.39732 -13.778828,-45.98547 -5.850433,-7.3194 -17.980541,-13.44836 -14.657351,-24.60961 4.206009,-9.70884 8.951094,-21.09909 1.77107,-30.81939 -4.963193,-3.93402 1.209647,-12.96119 -0.683991,-13.73798 -9.261244,0.26094 -10.147309,11.08591 -10.706343,18.10041 0.448122,5.84035 -6.046003,17.76001 -8.227485,6.43487 -6.246495,-8.36471 -11.293732,-18.41463 -8.358157,-29.10569 2.052552,-7.46934 -1.131333,-15.14702 -7.742498,-19.08189 -8.736826,-6.2212 3.32122,-19.15761 -7.839062,-23.996 -1.397789,-0.90782 -3.034789,-1.42113 -4.691905,-1.55354 z"
       id="path14" />
    <path
       class="cls-4"
       d=""
       id="path16" />
    <path
       class="cls-4"
       d=""
       id="path18" />
    <path
       id="path20"
       style="stroke:#c78500;stroke-opacity:1"
       class="cls-5"
       d="m 112.22765,385.5323 c -0.9873,5.22818 -0.85004,13.16357 -4.30971,18.66808 -1.22286,5.71223 -11.816198,12.6179 -7.76547,16.64541 43.00568,23.78932 74.22815,70.63135 73.50783,120.54793 -0.0754,10.19804 -1.39665,20.37711 -3.80569,30.28363 9.24522,-5.68038 18.20032,4.41874 18.03591,13.52761 0.76641,5.66204 11.90824,5.24906 13.6622,12.82808 4.6525,10.59402 5.29965,-6.46434 7.37825,-10.81143 9.63219,-37.05111 4.36675,-76.91203 -10.30218,-111.90567 -16.47491,-38.77895 -47.86428,-70.39642 -85.47535,-89.00968 -0.0906,-0.48531 -0.49962,-0.66226 -0.92579,-0.77396 z m -167.033199,3.80469 c -41.065618,23.99247 -74.760881,62.60066 -87.284261,109.04591 -14.60964,52.88607 -4.72724,112.50346 28.43924,156.55596 25.729587,35.1831 64.406863,60.7354 107.1880756,69.55102 28.6630114,6.1803 58.7392164,5.13093 87.0553844,-2.34234 10.310163,-27.49756 9.459905,-58.78913 -0.641056,-86.21444 -4.089954,-10.35972 -9.980195,-20.46702 -19.019104,-27.25627 -40.243099,3.11416 -82.805029,-4.08122 -116.521082,-27.30836 -19.036837,-13.30625 -34.445117,-33.0874 -38.680136,-56.30192 -6.523492,-30.42676 6.441115,-62.67233 29.27731,-83.08336 7.098897,-6.66141 14.924926,-12.50495 23.045008,-17.85714 -8.401716,-9.57765 -8.540483,-23.34976 -12.859379,-34.78906 z"
       sodipodi:nodetypes="sssscssscssscssscssscssscssscsssscccscssscssscssscssscssscssscssscssscssscsssc" />
    <path
       id="path24"
       style="stroke:#86a0a6;stroke-opacity:1"
       class="cls-2"
       d="m 0.4140625,562.55664 c -0.67749604,11.88976 1.8907853,23.66626 1.5390625,35.55078 16.470269,7.70341 35.576339,7.71222 53.206554,4.68227 12.781747,0.99393 7.781372,-11.93641 9.371276,-20.11391 -0.571163,-5.60722 3.523492,-18.07734 0.103027,-19.22484 -16.839023,7.9481 -36.733627,8.10329 -54.489424,3.27631 -3.379907,-1.03317 -6.687422,-2.36014 -9.7304955,-4.17061 z" />
    <path
       id="path26"
       style="stroke:#cfc759;stroke-opacity:1"
       class="cls-6"
       d="m 157.81836,502.01758 c -8.91433,-0.30048 -10.64413,10.6505 -9.37207,17.42699 0.4952,6.13077 4.80008,21.44372 10.54763,9.93242 5.45837,-6.64884 8.66503,-12.90691 4.33541,-21.23352 -0.90846,-2.51547 -2.56623,-5.77762 -5.51097,-6.12589 z" />
    <path
       id="path28"
       style="stroke:#82c759;stroke-opacity:1"
       class="cls-7"
       d="m 134.34375,522.33984 c -12.51444,3.14848 4.29787,11.13411 4.78556,17.22635 1.41684,8.26937 5.84598,16.053 13.42616,20.10155 4.31865,2.91776 7.4591,5.02474 3.85248,-1.41327 -4.42788,-11.49872 -5.47551,-25.72718 -15.67926,-33.92823 -1.88215,-1.25672 -4.12446,-1.94001 -6.38494,-1.9864 z" />
    <path
       id="path30"
       style="stroke:#82c759;stroke-opacity:1"
       class="cls-7"
       d="m 166.07422,526.24609 c -5.28698,8.4395 -10.07638,19.56673 -5.83837,29.36353 3.50586,6.8889 6.81654,3.07385 6.95337,-2.96681 1.82512,-8.63828 2.85015,-17.6504 1.15453,-26.39672 -0.75651,0 -1.51302,0 -2.26953,0 z" />
    <path
       id="path32"
       style="stroke:#387859;stroke-opacity:1"
       class="cls-8"
       d="m 141.20898,559.85742 c -7.4371,-0.14681 -1.95619,9.71003 -9.99503,9.53622 -15.36507,10.11455 -9.19711,37.72243 8.38957,41.57316 6.51988,-8.5739 18.90908,0.76007 24.6686,-5.20535 8.74837,-8.3568 -10.53156,-13.54151 -5.15201,-24.09732 4.86417,-4.97081 5.01464,-9.49041 -2.20796,-12.2169 -3.93431,-2.61671 -11.69644,-1.13351 -9.74809,-7.65035 -1.818,-1.03161 -3.81279,-1.97411 -5.95508,-1.93946 z" />
    <path
       id="path34"
       style="stroke:#546959;stroke-opacity:1"
       class="cls-9"
       d="m 175.73242,575.93359 c -5.94728,0.0429 -15.48366,9.26835 -9.00907,13.86471 2.49364,5.6566 16.12173,17.99507 14.82653,5.25432 -0.34947,-5.88177 3.21315,-18.7269 -5.81746,-19.11903 z" />
    <path
       id="path36"
       style="stroke:#546959;stroke-opacity:1"
       class="cls-9"
       d="m 100.37891,581.81445 c -8.058095,-0.9499 -16.30313,13.82545 -6.34866,16.29462 8.70467,3.06024 19.62911,-16.827 6.34866,-16.29462 z" />
    <path
       id="path38"
       style="stroke:#ad9459;stroke-opacity:1"
       class="cls-10"
       d="m 116.07227,590.1875 c -6.53932,1.24776 -10.15886,11.20009 -11.18872,15.77894 5.2412,4.76112 10.78279,12.17446 16.50359,4.16794 6.95325,-2.57708 -1.55241,-15.50988 -4.19978,-19.85937 z" />
    <path
       id="path40"
       style="stroke:#8f4059;stroke-opacity:1"
       class="cls-11"
       d="m 188.76367,595.08594 c 0.50257,6.84447 -7.1842,17.36629 -13.78137,10.75582 -7.53596,-5.04048 -6.39222,12.58679 -0.52501,15.17949 6.12352,4.96089 16.32468,10.18527 22.97541,9.32637 2.6181,-10.45185 4.063,-23.20409 -2.79843,-32.34436 -1.51781,-1.64707 -3.63608,-2.71521 -5.8706,-2.91732 z" />
    <path
       id="path42"
       style="stroke:#54cc59;stroke-opacity:1"
       class="cls-12"
       d="m 80.082031,600.78711 c -4.351775,-0.12258 -15.417505,2.52498 -6.929938,8.44024 3.980926,6.46812 11.915361,0.57943 18.126104,-0.10311 6.103842,-4.16115 -7.456008,-8.75193 -11.196166,-8.33713 z" />
    <path
       id="path44"
       style="stroke:#e07845;stroke-opacity:1"
       class="cls-13"
       d="m 96.134766,610.77539 c -7.738558,-0.7955 -17.678594,7.77204 -10.74999,15.10796 5.737858,7.34255 2.336716,19.06974 9.589833,25.17329 8.604811,-0.22367 19.232931,-3.18497 19.951651,-13.48584 0.92143,-9.95476 -3.94669,-21.28248 -13.15282,-25.84424 -1.799954,-0.66153 -3.722988,-0.97165 -5.638674,-0.95117 z" />
    <path
       id="path46"
       style="stroke:#54a359;stroke-opacity:1"
       class="cls-14"
       d="m 150.38477,612.58008 c -9.07332,-0.27503 -11.02741,11.84287 -0.66487,5.87052 5.24347,-1.0309 8.14914,-5.19555 0.66487,-5.87052 z" />
    <path
       id="path48"
       style="stroke:#802433;stroke-opacity:1"
       class="cls-15"
       d="m 130.16211,614.63477 c -8.37495,0.71089 -14.97843,7.10504 -9.83506,14.89088 0.97334,5.57822 -1.57032,11.51172 6.4876,9.68462 5.31737,2.12569 9.45731,9.096 14.17928,1.79278 6.75868,-5.7557 3.2746,-17.36377 -5.92948,-17.17688 0.68645,-4.11238 1.12755,-9.94696 -4.90234,-9.1914 z" />
    <path
       id="path50"
       style="stroke:#c78500;stroke-opacity:1"
       class="cls-5"
       d="m 160.77344,614.74609 c 1.32289,7.75482 -8.84972,10.16444 -10.21802,14.13157 3.29634,9.59188 -6.19406,17.29192 -10.51127,21.64466 4.9393,5.16555 3.80748,11.67106 11.53845,12.92619 5.95443,2.47369 3.42662,14.76438 5.94142,14.49148 13.38541,-11.61429 24.67919,-25.81686 31.99942,-42.01421 -10.87426,-3.56573 -22.40233,-9.74692 -26.48047,-21.17969 -0.75651,0 -1.51302,0 -2.26953,0 z" />
    <path
       id="path52"
       style="stroke:#544085;stroke-opacity:1"
       class="cls-16"
       d="m 123.12109,644.75195 c -13.39161,1.26407 1.39338,19.46687 5.91062,7.2131 1.09285,-4.21887 -1.63355,-7.30737 -5.91062,-7.2131 z" />
    <path
       id="path54"
       style="stroke:#544085;stroke-opacity:1"
       class="cls-16"
       d="m 109.05469,653.35156 c -14.194399,-0.0496 1.14606,18.5389 4.96863,5.74363 1.08318,-3.54837 -1.59542,-5.88282 -4.96863,-5.74363 z" />
    <path
       id="path56"
       style="stroke:#544085;stroke-opacity:1"
       class="cls-16"
       d="m 134.27539,656.47461 c -12.47956,0.23165 -0.0937,20.29965 5.28765,8.31451 1.12569,-3.5738 -1.1217,-8.40627 -5.28765,-8.31451 z" />
    <path
       id="path58"
       style="stroke:#544085;stroke-opacity:1"
       class="cls-16"
       d="m 119.59375,660.98438 c -11.25544,0.71637 -2.97139,20.70508 4.33066,9.95295 1.94903,-3.80566 1.16834,-10.27705 -4.33066,-9.95295 z" />
    <path
       id="path60"
       style="stroke:#544085;stroke-opacity:1"
       class="cls-16"
       d="m 97.234375,663.16602 c -5.125086,6.83629 5.202125,13.59541 8.330075,6 -3.8106,-0.52943 -4.28473,-5.92854 -8.330075,-6 z" />
    <path
       id="path62"
       style="stroke:#544085;stroke-opacity:1"
       class="cls-16"
       d="m 146.04492,667.75195 c -14.05448,2.85361 4.67099,18.61543 4.15094,4.43087 -0.22643,-2.14691 -1.68019,-4.5426 -4.15094,-4.43087 z" />
    <path
       id="path64"
       style="stroke:#544085;stroke-opacity:1"
       class="cls-16"
       d="m 131.9668,673.72656 c -12.65598,1.00356 -1.06102,17.77519 5.16585,7.58647 1.90978,-3.68272 -0.93552,-8.1124 -5.16585,-7.58647 z" />
    <path
       id="path66"
       style="stroke:#544085;stroke-opacity:1"
       class="cls-16"
       d="m 105.56445,676.77734 c -4.87049,1.2721 -13.103713,2.17165 -6.978532,8.66638 4.754042,1.94109 11.066132,-4.22439 6.978532,-8.66638 z" />
    <path
       id="path70"
       style="stroke:#544085;stroke-opacity:1"
       class="cls-16"
       d="m 144.0918,683.48242 c -12.6328,-0.13992 -3.43927,17.3204 4.4278,8.83063 2.59646,-3.55177 0.48658,-9.39979 -4.4278,-8.83063 z" />
    <path
       id="path68"
       style="stroke:#544085;stroke-opacity:1"
       class="cls-16"
       d="m 118.67188,679.69922 c -9.92903,-3.01186 -8.59652,12.48369 -0.43844,9.02343 4.38289,-0.9522 5.46293,-8.47618 0.43844,-9.02343 z" />
    <path
       id="path72"
       style="stroke:#c78500;stroke-opacity:1"
       class="cls-5"
       d="m 106.2832,690.39648 c -4.46955,4.00719 -13.57603,-2.89951 -10.29398,6.65304 1.310917,6.0442 -4.679658,18.8625 -0.868345,20.62289 7.731345,-4.14759 19.731925,-6.55342 24.396945,-12.70077 -3.19915,-5.12605 -1.47387,-10.67309 -8.74907,-11.0859 -1.64874,-0.95145 -3.07894,-2.22054 -4.48555,-3.48926 z" />
    <path
       id="path74"
       style="stroke:#544085;stroke-opacity:1"
       class="cls-16"
       d="m 129.60742,691.64453 c -11.08021,-0.0961 -5.67514,15.9047 3.18555,13.12109 6.19964,-2.37411 3.0367,-13.35501 -3.18555,-13.12109 z" />
  </g>
  <g
     inkscape:groupmode="layer"
     id="layer2"
     inkscape:label="Layer 2"
     style="display:inline"
     transform="matrix(0,-0.19388188,0.19388188,0,-101.8574,34.288522)">
    <path
       class="cls-1"
       d="m 60.17398,347.01573 c -6.101259,5.7355 -6.24934,20.82467 0.295642,23.68125 8.395912,-4.45499 6.534325,-18.67387 -0.295642,-23.68125 z"
       id="path6"
       style="stroke:#ff7b00;stroke-opacity:1" />
    <path
       class="cls-1"
       d="m 20.08398,375.75573 c -8.944067,8.18762 -4.102781,21.3614 -6.81,31.77 -4.807592,0.77622 -9.7144811,-1.51511 -7.3606393,5.78204 0.6817416,11.19771 4.5080663,25.83338 17.1489283,28.57105 10.704346,3.49694 16.384127,-5.949 24.585305,-10.37202 9.636025,-6.00837 7.634262,-19.44712 4.247051,-28.5093 -4.558514,-13.79178 -21.630239,-14.27314 -30.060064,-24.36512 -0.688228,-0.88957 -1.280586,-1.85439 -1.750581,-2.87665 z"
       id="path8"
       style="display:inline;stroke:#ff7b00;stroke-opacity:1" />
    <path
       class="cls-1"
       d="m -15.46602,375.75573 c -5.640849,7.71102 6.5731764,22.74483 9.9885498,16.71295 -6.0377768,-3.85228 -2.6437297,-14.03976 -9.9885498,-16.71295 z"
       id="path10"
       style="display:inline;stroke:#ff7b00;stroke-opacity:1" />
  </g>
</svg>
